<svg width="30" height="30" viewBox="0 0 30 30" fill="none" xmlns="http://www.w3.org/2000/svg">
<g clip-path="url(#clip0_274_786)">
<path fill-rule="evenodd" clip-rule="evenodd" d="M15 30C23.2843 30 30 23.2843 30 15C30 6.71574 23.2843 0 15 0C6.71574 0 0 6.71574 0 15C0 23.2843 6.71574 30 15 30ZM20.9288 8.69784C19.3852 7.1523 17.3322 6.30081 15.145 6.3C10.6385 6.3 6.97038 9.96756 6.96876 14.4757C6.96822 15.9167 7.34469 17.3234 8.06004 18.5631L6.9 22.8L11.2343 21.6632C12.4285 22.3147 13.7732 22.6579 15.1414 22.6584H15.1447C19.6509 22.6584 23.319 18.9903 23.3209 14.4825C23.3222 12.2975 22.4727 10.2434 20.9288 8.69784ZM18.8726 16.1876C18.6682 16.0853 17.664 15.5912 17.4765 15.5231C17.2894 15.4548 17.153 15.4207 17.0168 15.6253C16.8807 15.83 16.4892 16.2899 16.37 16.4264C16.2508 16.5628 16.1315 16.5797 15.9275 16.4774C15.8941 16.4606 15.8485 16.4409 15.7923 16.4165C15.5046 16.2917 14.9372 16.0457 14.2845 15.4633C13.6772 14.9215 13.2672 14.2525 13.148 14.0482C13.0287 13.8436 13.1351 13.7331 13.2374 13.6313C13.2988 13.5701 13.3692 13.4843 13.4396 13.3986C13.4747 13.3558 13.5098 13.313 13.5438 13.2734C13.6304 13.1723 13.668 13.0955 13.7191 12.9915C13.7282 12.9728 13.7378 12.9533 13.7482 12.9326C13.8164 12.7962 13.7823 12.677 13.7312 12.5747C13.6972 12.5063 13.5035 12.035 13.328 11.6077C13.2407 11.3952 13.1578 11.1936 13.1013 11.0578C12.9548 10.7061 12.8065 10.707 12.6874 10.7077C12.6716 10.7078 12.6563 10.7079 12.6416 10.7072C12.5226 10.7012 12.3862 10.7001 12.2501 10.7001C12.1139 10.7001 11.8927 10.7511 11.7053 10.9557C11.6932 10.9689 11.6797 10.9833 11.665 10.999C11.4521 11.2263 10.9902 11.7194 10.9902 12.6601C10.9902 13.6632 11.7186 14.6324 11.8237 14.7723L11.8245 14.7733C11.8311 14.7822 11.843 14.7993 11.86 14.8236C12.1039 15.1735 13.3985 17.0307 15.3144 17.8581C15.802 18.0687 16.1823 18.1943 16.4791 18.2884C16.9685 18.4439 17.4138 18.422 17.766 18.3694C18.1586 18.3107 18.9746 17.8753 19.1448 17.3981C19.3151 16.921 19.3151 16.5118 19.2641 16.4266C19.2229 16.3577 19.1264 16.311 18.9833 16.2418C18.949 16.2253 18.912 16.2074 18.8726 16.1876Z" fill="black"/>
</g>
<defs>
<clipPath id="clip0_274_786">
<rect width="30" height="30" fill="white"/>
</clipPath>
</defs>
</svg>
