<svg width="30" height="30" viewBox="0 0 30 30" fill="none" xmlns="http://www.w3.org/2000/svg">
<circle cx="15" cy="15" r="15" fill="black"/>
<g clip-path="url(#clip0_274_789)">
<path d="M23.2984 9.75345C22.6487 8.98107 21.4491 8.66602 19.1581 8.66602H10.8418C8.49834 8.66602 7.27841 9.0014 6.6311 9.82371C6 10.6255 6 11.8068 6 13.4418V16.558C6 19.7255 6.7488 21.3337 10.8418 21.3337H19.1581C21.1449 21.3337 22.2458 21.0557 22.958 20.3741C23.6884 19.6751 24 18.5338 24 16.558V13.4418C24 11.7175 23.9512 10.5292 23.2984 9.75345ZM17.5561 15.4301L13.7797 17.4038C13.6952 17.4479 13.6029 17.4698 13.5107 17.4698C13.4063 17.4698 13.3021 17.4417 13.2099 17.3859C13.0361 17.2806 12.9301 17.0923 12.9301 16.8892V12.9545C12.9301 12.7517 13.0359 12.5636 13.2092 12.4583C13.3827 12.3529 13.5984 12.3457 13.7783 12.4392L17.5547 14.4002C17.7469 14.4999 17.8675 14.6983 17.8678 14.9147C17.868 15.1313 17.7479 15.3299 17.5561 15.4301Z" fill="white"/>
</g>
<defs>
<clipPath id="clip0_274_789">
<rect width="18" height="18" fill="white" transform="translate(6 6)"/>
</clipPath>
</defs>
</svg>
